<svg fill="none" height="25" width="25" xmlns="http://www.w3.org/2000/svg"><path d="M19.836 22.236H5.21A3.218 3.218 0 0 1 2 19.026V8.178a3.21 3.21 0 0 1 1.682-2.8l7.31-3.988a3.2 3.2 0 0 1 3.063 0l7.31 3.967a3.21 3.21 0 0 1 1.682 2.8v10.87a3.217 3.217 0 0 1-3.21 3.21h-.001zM12.512 2.5c-.299 0-.592.075-.855.217L4.448 6.691A1.808 1.808 0 0 0 3.5 8.282v10.41c0 .238-.053.473.038.692.19.22.324.42.492.587a1.807 1.807 0 0 0 1.28.529h14.403a1.808 1.808 0 0 0 1.787-1.808V8.282a1.807 1.807 0 0 0-.946-1.591l-7.166-3.974a1.808 1.808 0 0 0-.876-.217z" fill="#BCC0C6"/><path d="M15.329 17.338H9.721a.701.701 0 1 0 0 1.402h5.607a.701.701 0 0 0 0-1.402z" fill="#BCC0C6"/></svg>